<?xml version="1.0" standalone="no"?>
<!DOCTYPE svg PUBLIC "-//W3C//DTD SVG 20010904//EN"
 "http://www.w3.org/TR/2001/REC-SVG-20010904/DTD/svg10.dtd">
<svg version="1.0" xmlns="http://www.w3.org/2000/svg"
 width="425.000000pt" height="425.000000pt" viewBox="0 0 425.000000 425.000000"
 preserveAspectRatio="xMidYMid meet">

<g transform="translate(0.000000,425.000000) scale(0.100000,-0.100000)"
fill="#000000" stroke="none">
<path d="M1913 4239 c-954 -92 -1745 -842 -1888 -1789 -123 -822 234 -1631
924 -2094 628 -421 1454 -470 2135 -126 741 375 1198 1152 1163 1980 -23 536
-235 1025 -607 1400 -122 123 -149 147 -258 228 -410 304 -950 452 -1469 401z
m552 -28 c370 -63 702 -211 990 -444 102 -83 284 -270 357 -368 133 -178 251
-403 319 -609 298 -905 -41 -1890 -834 -2423 -674 -453 -1569 -473 -2266 -51
-211 128 -453 348 -598 544 -364 492 -497 1081 -379 1685 59 299 196 601 395
870 63 84 260 284 354 358 326 257 709 414 1119 457 128 14 405 4 543 -19z"/>
<path d="M2505 3893 c-87 -23 -165 -87 -205 -166 -69 -138 -19 -304 115 -383
59 -34 99 -44 175 -45 124 -1 245 71 295 176 47 99 23 244 -55 324 -63 65
-131 94 -225 97 -44 2 -89 0 -100 -3z"/>
<path d="M1925 3250 c-352 -3 -635 -8 -630 -11 9 -6 554 -180 913 -292 l133
-42 54 -111 c76 -155 117 -285 112 -349 -2 -27 -70 -443 -151 -923 -80 -480
-146 -886 -146 -903 0 -33 10 -37 32 -11 12 13 360 571 572 914 22 37 44 67
48 68 3 0 15 -39 27 -88 58 -250 212 -870 221 -889 10 -25 38 -31 45 -10 4 12
145 1685 145 1723 0 19 -6 21 -77 23 -158 4 -654 29 -658 33 -2 2 163 16 367
31 204 15 375 30 379 33 14 9 10 48 -12 120 -18 59 -74 173 -307 627 l-35 67
-196 -2 c-108 -2 -484 -5 -836 -8z"/>
<path d="M1266 2849 c-26 -71 -104 -187 -160 -236 -26 -23 -70 -52 -97 -64
-27 -13 -49 -25 -49 -27 0 -3 15 -24 33 -48 76 -102 189 -126 457 -100 164 15
223 14 260 -4 12 -7 15 0 15 33 0 57 28 94 123 161 42 31 87 64 99 74 37 32
63 85 63 128 l0 41 -57 -9 c-137 -23 -389 9 -573 72 -48 16 -89 30 -92 30 -2
0 -12 -23 -22 -51z"/>
<path d="M808 2213 c-14 -2 -32 -11 -39 -20 -11 -13 -9 -19 12 -37 23 -19 28
-36 47 -161 12 -77 49 -314 82 -528 33 -213 64 -415 69 -450 30 -203 62 -405
66 -424 l5 -23 415 0 415 0 4 22 c3 13 21 178 41 368 20 190 56 529 81 754 24
225 44 413 44 417 0 4 12 14 28 21 38 18 36 51 -3 59 -32 7 -1222 9 -1267 2z
m276 -85 c3 -7 7 -57 10 -110 l5 -98 -103 0 -104 0 -7 69 c-4 39 -4 88 0 110
l7 41 94 0 c67 0 96 -4 98 -12z m336 -98 l0 -110 -129 0 -128 0 -6 68 c-4 37
-7 86 -7 110 l0 42 135 0 135 0 0 -110z m346 49 c-3 -34 -6 -84 -6 -110 l0
-49 -135 0 -135 0 0 110 0 110 141 0 142 0 -7 -61z m218 39 c3 -13 6 -62 6
-110 l0 -88 -85 0 -85 0 0 33 c0 19 3 68 6 110 l7 77 72 0 c67 0 73 -2 79 -22z
m-880 -300 c3 -18 8 -79 11 -135 l7 -103 -95 0 -95 0 -10 78 c-6 42 -14 103
-18 135 l-6 57 100 0 101 0 5 -32z m316 -103 l0 -135 -114 0 c-63 0 -117 3
-120 8 -2 4 -7 65 -11 135 l-8 127 127 0 126 0 0 -135z m325 33 c-3 -57 -8
-118 -11 -135 l-5 -33 -119 0 -120 0 0 135 0 135 130 0 131 0 -6 -102z m231
20 c-4 -46 -9 -107 -12 -135 l-6 -53 -79 0 -79 0 0 43 c0 24 3 85 6 135 l7 92
85 0 85 0 -7 -82z m-846 -301 c0 -24 3 -78 6 -120 l7 -77 -80 0 c-93 0 -84
-11 -103 125 -6 44 -13 88 -16 98 -5 15 4 17 90 17 l96 0 0 -43z m290 -77 l0
-120 -110 0 -110 0 0 38 c0 20 -3 74 -7 120 l-6 82 117 0 116 0 0 -120z m304
43 c-3 -43 -7 -97 -10 -120 l-5 -43 -110 0 -109 0 0 120 0 120 120 0 120 0 -6
-77z m222 32 c-3 -25 -8 -66 -11 -92 -13 -109 -8 -103 -86 -103 l-69 0 0 53
c0 28 3 82 7 120 l6 67 79 0 79 0 -5 -45z m-803 -272 c3 -5 8 -61 12 -125 l7
-118 -64 0 -65 0 -20 120 c-11 66 -17 122 -15 125 8 8 140 6 145 -2z m277
-118 l0 -125 -100 0 -100 0 0 43 c0 23 -3 79 -7 125 l-6 82 107 0 106 0 0
-125z m284 53 c-3 -40 -7 -97 -10 -125 l-5 -53 -100 0 -99 0 0 125 0 125 109
0 110 0 -5 -72z m202 25 c-3 -27 -11 -83 -17 -125 l-11 -78 -63 0 -62 0 3 48
c2 26 6 82 10 125 l6 77 70 0 71 0 -7 -47z m-732 -365 c11 -165 13 -158 -39
-158 -25 0 -45 1 -45 3 0 2 -9 52 -20 112 -11 60 -20 115 -20 122 0 9 17 13
59 13 l58 0 7 -92z m246 -33 l0 -125 -85 0 c-60 0 -87 4 -90 13 -2 6 -6 63
-10 125 l-6 112 95 0 96 0 0 -125z m266 78 c-3 -27 -8 -83 -12 -125 l-6 -78
-89 0 -89 0 0 125 0 125 100 0 101 0 -5 -47z m181 20 c-3 -16 -11 -72 -18
-125 l-13 -98 -53 0 -53 0 6 63 c2 34 7 90 10 125 l6 62 60 0 61 0 -6 -27z"/>
</g>
</svg>
